<svg xmlns="http://www.w3.org/2000/svg" viewBox="0 0 100 100" role="img" aria-label="NSchema">
  <title>NSchema</title>
  <!-- Left brace -->
  <path d="M 28 22 Q 22 22 22 28 L 22 44 Q 22 50 18 50 Q 22 50 22 56 L 22 72 Q 22 78 28 78"
        fill="none" stroke="#6b8fff" stroke-width="3" stroke-linecap="round" stroke-linejoin="round"/>
  <!-- Right brace -->
  <path d="M 72 22 Q 78 22 78 28 L 78 44 Q 78 50 82 50 Q 78 50 78 56 L 78 72 Q 78 78 72 78"
        fill="none" stroke="#6b8fff" stroke-width="3" stroke-linecap="round" stroke-linejoin="round"/>
  <!-- Schema rows: top group -->
  <rect x="30" y="26" width="26" height="4" rx="2" fill="#6b8fff"/>
  <rect x="58" y="26" width="12" height="4" rx="2" fill="#3a3d4a"/>
  <rect x="30" y="34" width="20" height="4" rx="2" fill="#6b8fff"/>
  <rect x="52" y="34" width="18" height="4" rx="2" fill="#3a3d4a"/>
  <rect x="30" y="42" width="24" height="4" rx="2" fill="#6b8fff"/>
  <rect x="56" y="42" width="14" height="4" rx="2" fill="#3a3d4a"/>
  <!-- Schema rows: bottom group -->
  <rect x="30" y="54" width="22" height="4" rx="2" fill="#6b8fff"/>
  <rect x="54" y="54" width="16" height="4" rx="2" fill="#3a3d4a"/>
  <rect x="30" y="62" width="26" height="4" rx="2" fill="#6b8fff"/>
  <rect x="58" y="62" width="12" height="4" rx="2" fill="#3a3d4a"/>
  <rect x="30" y="70" width="20" height="4" rx="2" fill="#6b8fff"/>
  <rect x="52" y="70" width="18" height="4" rx="2" fill="#3a3d4a"/>
</svg>
